<?xml version="1.0" encoding="utf-8"?>
<!-- Generator: Adobe Illustrator 19.0.0, SVG Export Plug-In . SVG Version: 6.00 Build 0)  -->
<svg version="1.1" id="Calque_1" xmlns="http://www.w3.org/2000/svg" xmlns:xlink="http://www.w3.org/1999/xlink" x="0px" y="0px"
	 viewBox="0 0 450 410" enable-background="new 0 0 450 410" xml:space="preserve">
<script  xmlns="" id="__gaOptOutExtension"></script>
<g id="XMLID_12_">
	<g id="XMLID_13_">
		<path id="XMLID_14_" d="M355.3,4.5l80.5,247.9L225,405.5L14.2,252.3L94.7,4.5C94.7,4.5,355.3,4.5,355.3,4.5z"/>
	</g>
</g>
<g id="XMLID_1_">
	<path id="XMLID_11_" fill="#01A84E" d="M345.6,81.7c0-2.2-1-3.1-3.2-3.1c-4.1,0-8.3-0.1-12.4,0c-2.8,0.1-4.3-0.8-4.3-3.8
		c0-7.5-0.1-15-0.2-22.5c0-4.7-0.3-5-5-5c-63.8,0-127.5,0-191.3,0c-5.2,0-5.9,0.7-5.9,5.8c0,9.2,0,18.5,0,27.7c0,4.9,0,4.9-4.8,5
		c-3.5,0-7,0.1-10.4,0c-2.6,0-3.7,1.1-3.7,3.7c0.1,14.1,0,28.2,0,42.4c0,2.5,1,3.6,3.5,3.5c4.1-0.1,8.3,0.1,12.4,0
		c2.2,0,3.1,0.9,3.1,3.1c-0.1,4.2-0.1,8.5,0,12.7c0,2.2-0.8,3.1-3.1,3.2c-5.7,0.2-6,0.7-6,6.3c0,40.4,0,80.8,0,121.2
		c0,6.1,0.5,6.6,6.8,6.6c34.8,0,69.5,0,104.3,0c34.9,0,69.7,0,104.6,0c5.6,0,6-0.3,6-5.8c0-17.1,0-34.1,0-51.2c0-24,0-48,0-72
		c0-4.4-0.7-5.1-5.1-5.2c-0.5,0-1.1,0-1.6,0c-2.3,0.2-3.5-0.8-3.5-3.2c0-6.6,0.1-13.2,0.1-19.9c0-2.3,1.2-3.2,3.5-3.2
		c4.2,0.1,8.5,0,12.7,0c2.1,0,3.6-0.6,3.6-3.1C345.6,110.6,345.6,96.1,345.6,81.7z M131.9,51.8c54.3,0.1,108.6,0.1,162.8,0.1
		c7.7,0,15.4,0.1,23.1,0c2.7,0,3.6,1,3.6,3.6c-0.1,31.8-0.1,63.6,0,95.5c0,2.7-0.9,3.7-3.6,3.4c-1.8-0.2-3.7,0.1-5.5-0.1
		c-5-0.6-8.8,0.6-10.3,5.9c-6.5,14.2-13,28.4-19.4,42.6c-2.1,4.6-4.1,9.3-6.2,13.9c-0.2,0.3-0.9,0.1-0.9,0.1h-1
		c-1.6-0.2-3.2-0.5-4.8-0.6c-30.9,0-61.9,0-92.8,0c-2,0-4.1-0.3-6.1-0.5c0,0,0-0.1,0-0.1c-3.6-8.6-7.2-17.2-10.7-25.8
		c-4.3-10.5-8.6-21.1-12.8-31.7c-1.1-2.8-2.7-3.9-5.6-3.8c-3.4,0.1-6.7-0.1-10.1,0.1c-2.9,0.2-3.7-0.9-3.7-3.7
		c0.1-20.6,0.1-41.3,0.1-61.9c0-11,0.1-21.9-0.1-32.9C127.8,52.7,128.8,51.8,131.9,51.8z M328.2,159.4c1.9,0,2.9,0.6,2.8,2.6
		c0,1.5,0.2,3,0.2,4.5c0,37.2,0,74.5,0,111.7c0,5.1,0,5.1-5,5.1c-11.6,0-23.2-0.1-34.8-0.1c-1.3,0-2.6,0.1-3.9,0.1
		c-54.4,0-108.8,0-163.2,0c-4.8,0-4.8,0-4.8-4.8c0-38.1,0-76.2,0-114.4c0-4.7,0-4.7,4.6-4.7c4.6,0,9.1,0.2,13.7-0.1
		c3.5-0.2,5.2,1,6.5,4.3c7.1,18,14.5,35.8,21.6,53.8c1.4,3.5,3.3,4.7,7,4.7c33.8-0.1,67.6-0.1,101.3,0c3.9,0,5.9-1.2,7.4-4.8
		c3.1-7.4,6.7-14.6,10-21.9c5-10.8,10.1-21.6,14.9-32.5c1.1-2.4,2.4-3.6,5.1-3.5C317.1,159.6,322.6,159.5,328.2,159.4z"/>
	<path id="XMLID_293_" fill="#44FF98" d="M170.8,215.6c-3.6-8.6-7.2-17.2-10.7-25.8c-4.3-10.5-8.6-21.1-12.8-31.7
		c-1.1-2.8-2.7-3.9-5.6-3.8c-3.4,0.1-6.7-0.1-10.1,0.1c-2.9,0.2-3.7-0.9-3.7-3.7c0.1-20.6,0.1-41.3,0.1-61.9c0-11,0.1-21.9-0.1-32.9
		c0-3.2,1-4,4.1-4c54.3,0.1,108.6,0.1,162.8,0.1c0.2,0.7,0.5,1.4,0.6,2.2c5.1,28.9,7.3,58.1,7.2,87.5c0,6.2-0.3,12.4-0.4,18.5
		c-6.5,14.2-13,28.4-19.4,42.6c-2.1,4.6-4.1,9.3-6.2,13.9c-0.1,0.5-1.4,0.6-2,0.1c-1.6-0.2-3.2-0.5-4.8-0.6c-30.9,0-61.9,0-92.8,0
		C174.9,216.1,172.8,215.8,170.8,215.6z"/>
	<path id="XMLID_290_" fill="#44FF98" d="M291.4,283.2c-1.3,0-2.6,0.1-3.9,0.1c-54.4,0-108.8,0-163.2,0c-4.8,0-4.8,0-4.8-4.8
		c0-38.1,0-76.2,0-114.4c0-4.7,0-4.7,4.6-4.7c4.6,0,9.1,0.2,13.7-0.1c3.5-0.2,5.2,1,6.5,4.3c7.1,18,14.5,35.8,21.6,53.8
		c1.4,3.5,3.3,4.7,7,4.7c33.8-0.1,67.6-0.1,101.3,0c3.9,0,5.9-1.2,7.4-4.8c3.1-7.4,6.7-14.6,10-21.9c0.2,1.3,0.5,2.5,0.5,3.8
		c-0.1,7.4-0.4,14.7-0.5,22.1C291.5,242,291.5,262.6,291.4,283.2z"/>
	<path id="XMLID_289_" fill="#18D46E" d="M291.4,283.2c0.1-20.6,0.1-41.3,0.2-61.9c0-7.4,0.3-14.7,0.5-22.1c0-1.3-0.3-2.5-0.5-3.8
		c5-10.8,10.1-21.6,14.9-32.5c1.1-2.4,2.4-3.6,5.1-3.5c5.5,0.2,11.1,0.1,16.6,0c1.9,0,2.9,0.6,2.8,2.6c0,1.5,0.2,3,0.2,4.5
		c0,37.2,0,74.5,0,111.7c0,5.1,0,5.1-5,5.1C314.6,283.3,303,283.3,291.4,283.2z"/>
	<path id="XMLID_288_" fill="#18D46E" d="M302.1,160.1c0.2-6.2,0.4-12.4,0.4-18.5c0.1-29.4-2.1-58.5-7.2-87.5
		c-0.1-0.7-0.4-1.5-0.6-2.2c7.7,0,15.4,0.1,23.1,0c2.7,0,3.6,1,3.6,3.6c-0.1,31.8-0.1,63.6,0,95.5c0,2.7-0.9,3.7-3.6,3.4
		c-1.8-0.2-3.7,0.1-5.5-0.1C307.4,153.6,303.6,154.8,302.1,160.1z"/>
	<path id="XMLID_287_" fill="#44FF98" d="M326.1,114.4c0-7.2,0-15,0-22.2c4.1-0.2,8.2,0.1,12.3,0.1c2.5,0,3.6-0.8,3.5-3.4
		c-0.1-1.7,0.2-3.4,0.4-5.2c0,3.7,0.1,7.4,0.1,11.1c0,6.3-0.1,12.6-0.1,18.8c-2.2,0.2-4.4,0.5-6.7,0.6
		C332.4,114.5,329.3,114.4,326.1,114.4z"/>
	<path id="XMLID_285_" fill="#18D46E" d="M326.1,114.4c3.2,0,6.4,0,9.5-0.1c2.2-0.1,4.4-0.4,6.7-0.6c0,0.4,0.1,0.9,0.1,1.3
		c0,2.3-0.1,4.5-0.1,6.8c0,2-1,3-3,3c-3.6,0-7.1,0-10.7,0c-2.3,0-3-1.3-2.9-3.3C325.8,119.2,326,116.8,326.1,114.4z"/>
	<path id="XMLID_284_" fill="#FFFFFF" d="M342.3,84.1c-0.1,1.7,0.1,3.2,0.2,4.9c0.1,2.6-1,3.4-3.5,3.4c-4.1,0-8.2,0.4-12.3,0.6
		c-0.2-0.2-0.4-0.4-0.7-0.7c0-3.5,0-6.9,0-10.4c4.9-0.1,9.8-0.2,14.8-0.1C341.5,81.9,342,82.7,342.3,84.1z"/>
	<path id="XMLID_16_" fill="#18D46E" d="M123.3,121.6c-0.4,0-0.8,0-1.2,0c-4.8,0-9.5,0-14.3-0.1c0,2.6,0,5.2-0.1,7.8
		c0,1.9,0.8,2.8,2.7,2.8c3.3,0,6.7,0,10,0c2.1,0,2.9-0.9,2.9-3L123.3,121.6z"/>
	<path id="XMLID_282_" fill="#FFFFFF" d="M122.7,99.6c-4.5,0-9,0-13.7,0c-0.2-3.8-0.4-7.1-0.6-10.4c5,0,9.9,0,14.9-0.1
		c0,3.2,0,6.5,0,9.7C123.1,99.1,122.9,99.3,122.7,99.6z"/>
	<path id="XMLID_274_" fill="#363636" d="M342.4,115.1c0-0.4-0.1-0.9-0.1-1.3c0-6.3,0.1-12.6,0.1-18.8
		C342.4,101.7,342.4,108.4,342.4,115.1z"/>
	<path id="XMLID_263_" fill="#01A84E" d="M216,106.4c0.1,18.4-14.5,33-33.3,33.3c-17.6,0.3-33-15-33.2-33
		C149.3,88.2,164.4,73.1,183,73C201.1,73,215.9,87.9,216,106.4z M157.2,106.6c0.1,14.4,11.8,25.7,26.2,25.5
		c13.7-0.2,25.2-11.9,25.2-25.6c0-14.2-11.7-25.9-25.6-25.9C168.5,80.7,157,92.3,157.2,106.6z"/>
	<path id="XMLID_260_" fill="#01A84E" d="M225.5,104.8c0.2-18.6,15-33,33.7-32.8c18.3,0.2,33,15.2,32.8,33.5
		c-0.2,18.2-15.5,33.2-33.5,33C240,138.2,225.3,123.2,225.5,104.8z M232.9,106.6c1.3,16.2,15.2,24.9,27.3,24.2
		c13.8-0.8,24.8-12.9,24.1-27.2c-0.6-13.7-13-24.9-26.8-24.2C243.4,80,232.4,92.2,232.9,106.6z"/>
	<path id="XMLID_7_" fill="#FFFFFF" d="M208.7,55.7c-18.1,0.4-36.2,0.9-54.3,1.3c-7.1,0.2-13.7,0.5-20.8,0.6c-2.2,0-3,0.9-3.1,3.1
		c-0.1,12.9-0.4,25.8-0.6,38.7c0,14,0,28,0,40c0.3-3,0.8-8.1,1.3-13.2c0.2-0.5,0.4-1,0.5-1.6c2-17.5,4.1-34.9,5.9-52.4
		c0.3-2.5,1.2-3.6,3.7-4c18.8-3.1,37.7-6.3,56.5-9.4c4.7-0.8,9.5-1.7,14.2-2.5C210.9,55.7,209.8,55.7,208.7,55.7z"/>
	<path id="XMLID_223_" fill="#FFFFFF" d="M191.3,278.2c-3.8-0.7-7.7-1.4-11.5-2.1c-1.5-0.4-2.9-0.9-4.4-1.2
		c-14.5-3.2-29-6.5-43.6-9.6c-2-0.4-2.7-1.3-2.9-3.2c-0.9-11.1-1.8-22.3-2.7-33.4c-0.6-6.4-1.3-12.7-1.9-19.1
		c-0.3-3.9-0.5-7.7-0.8-11.6c0,0,0,0,0,0c-0.2-2.6-0.4-5.1-0.6-7.7c-0.1,0-0.3,0-0.4,0c0,9.4,0,18.9,0,28.3c0.2,0,0.3,0.1,0.5,0.1
		l0,0c-0.2,0-0.3-0.1-0.5-0.1c0,19.3-0.1,38.6-0.1,57.9c0,0.9,0.4,1.9,0.6,2.8c1.3,0.2,2.5,0.6,3.8,0.6c20.9,0,41.8,0,62.7,0
		c1.3,0,2.5-0.4,3.8-0.6C192.7,279.1,192,278.6,191.3,278.2z"/>
	<path id="XMLID_249_" fill="#FEFEFE" d="M157.2,106.6c-0.1-14.3,11.3-25.9,25.7-26c13.9-0.1,25.6,11.7,25.6,25.9
		c0,13.7-11.5,25.4-25.2,25.6C168.9,132.3,157.3,121,157.2,106.6z"/>
	<path id="XMLID_246_" fill="#FEFEFE" d="M232.9,106.6c-0.6-14.3,10.5-26.6,24.6-27.2c13.9-0.6,26.2,10.5,26.8,24.2
		c0.7,14.3-10.3,26.5-24.1,27.2C248.1,131.5,234.2,122.8,232.9,106.6z"/>
	<path id="XMLID_6_" fill="#44FF98" d="M122.7,99.6c-4.5,0-9,0-13.7,0c-0.2-3.8-0.4-7.1-0.6-10.4c-0.3,0.2-0.6,0.4-0.8,0.6
		c0,10.4,0.1,20.8,0.1,31.2c0.1,0.2,0.1,0.4,0.1,0.6c4.8,0,14.3,0.1,14.3,0.1c0.4,0,0.8,0,1.2,0c0-7.6,0-15.2,0-22.8
		C123.1,99.1,122.9,99.3,122.7,99.6z"/>
</g>
<g id="XMLID_8_">
	<g id="XMLID_17_">
		<path id="XMLID_18_" d="M258.8,98.8v6.8c2.9,0,5.3,2.4,5.3,5.3c0,2.9-2.4,5.3-5.3,5.3c-2.9,0-5.3-2.4-5.3-5.3h-0.4h-6.4
			c0,5.9,5.1,12.1,12.1,12.1c6.7,0,12.1-5.4,12.1-12.1C270.9,104.2,265.5,98.8,258.8,98.8 M253.6,93.8H268V87h-21.3v18.4h6.9V93.8z"
			/>
	</g>
</g>
<g id="XMLID_3_">
	<g id="XMLID_21_">
		<path id="XMLID_23_" d="M183.1,100.1v6.8c2.9,0,5.3,2.4,5.3,5.3c0,2.9-2.4,5.3-5.3,5.3c-2.9,0-5.3-2.4-5.3-5.3h-0.4H171
			c0,5.9,5.1,12.1,12.1,12.1c6.7,0,12.1-5.4,12.1-12.1C195.2,105.6,189.8,100.1,183.1,100.1 M177.9,95.2h14.4v-6.8H171v18.4h6.9
			V95.2z"/>
	</g>
</g>
</svg>
